<?xml version="1.0" encoding="utf-8"?>
<!-- Generator: Adobe Illustrator 24.1.1, SVG Export Plug-In . SVG Version: 6.00 Build 0)  -->
<svg version="1.1" id="Layer_1" xmlns="http://www.w3.org/2000/svg" xmlns:xlink="http://www.w3.org/1999/xlink" x="0px" y="0px"
	 viewBox="0 0 512 512" style="enable-background:new 0 0 512 512;" xml:space="preserve">
<style type="text/css">
	.st0{fill:#346DA6;}
	.st1{fill:#FFFFFF;}
</style>
<g id="XMLID_1_">
	<circle id="XMLID_3_" class="st0" cx="256" cy="256" r="256"/>
	<path id="XMLID_8_" class="st1" d="M116.4,179.7c26.1-49.3,79.1-81,139.6-81c39.1,0,75.4,16.8,103.3,40c-7.4-1.9-16.8,0-25.1,5.6
		c-20.5,11.2-27,44.7-0.9,61.4c16.8,10.2,22.3,36.3,21.4,51.2c-0.9,15.8-38.2,87.5-38.2,87.5l-36.3-125.7c0,0-0.9-8.4-0.9-11.2
		c0-2.8,0.9-7.4,2.8-9.3c0.9-1.9,3.7-4.7,5.6-4.7h17.7v-14h-95v14h2.8c2.8,0,6.5,3.7,9.3,7.4c3.7,3.7,7.4,16.8,13,30.7l14,45.6
		l-29.8,68l-32.6-136.8c0,0,0.9-9.3,2.8-11.2c0.9-0.9,2.8-3.7,5.6-3.7h0.9v-14L116.4,179.7L116.4,179.7z M135,202.9
		c0,0-7.4-9.3-15.8-9.3h-8.4c-8.4,17.7-12.1,41-12.1,62.4c0,64.2,40,120.1,96.8,143.4L135,202.9z M391.9,177.8
		c2.8,14,2.8,31.7-3.7,50.3c-14.9,49.3-53.1,137.8-68,171.3c54.9-24.2,93.1-79.1,93.1-142.4C414.3,228.1,405.9,201.1,391.9,177.8z
		 M259.7,310.9l-41,98.7c12.1,2.8,24.2,4.7,37.2,4.7s26.1-1.9,38.2-4.7L259.7,310.9z"/>
</g>
</svg>
